<svg xmlns="http://www.w3.org/2000/svg" width="100%" viewBox="0 0 576 400" height="150" xmlns:v="https://vecta.io/nano"><path d="M39.651 264l.002-210.97c0-7.363.009-7.376 7.31-7.376l468.432.006c6.91 0 6.936.015 6.936 6.731l.011 314.455c0 6.441-.028 6.461-6.784 6.461-156.311.003-312.622.001-468.932-.002-6.945 0-6.969-.013-6.971-6.82L39.651 264m473.247-119.5l-.017-82.48c-.003-6.981-.023-6.99-6.855-6.989l-449.393.043c-7.533.001-7.551.014-7.552 7.331l.005 293.93c0 7.368.014 7.374 7.422 7.375l448.893.013c7.472 0 7.479-.006 7.48-7.273l.017-211.95z"/><path d="M239.737 137.021c6.065-12.146 15.788-17.833 28.812-17.265 12.365.539 21.389 6.748 26.618 18.002 1.352 2.909 2.658 3.301 5.702 2.488 13.214-3.529 24.304 3.193 27.685 16.541.74 2.921 1.995 4.881 4.963 6.218 6.749 3.039 9.861 8.755 9.169 15.605-.772 7.646-5.722 13.704-12.736 15.629-3.416.938-6.905.935-10.403.937l-75.926.016c-21.517-.149-28.376-19.423-23.651-32.952 1.757-5.032 4.965-9.297 10.048-11.198 4.873-1.822 7.748-4.678 8.29-9.904.133-1.283.851-2.506 1.432-4.116zm-73.179 111.706c3.572 6.521 3.476 13.286 2.467 19.832-2.342 15.191-15.707 20.821-29.885 12.821-3.052 4.376-7.47 2.914-11.559 2.375-1.801-.237-1.815-2.176-1.817-3.684l-.059-51.437c-.013-3.075 1.41-3.926 4.258-4.055 8.334-.376 8.366-.44 8.382 7.833l.001 11.957c5.955-4.27 11.821-5.974 18.298-4.065 4.406 1.299 7.437 4.247 9.915 8.422m-28.203 11.204c-.009 2.977-.144 5.913 1.018 8.819 1.576 3.944 4.084 6.595 8.473 6.379 4.308-.212 7.014-2.915 8.105-6.966 1.374-5.103 1.473-10.199-1.535-14.873-3.397-5.28-10.203-5.374-13.642-.145-1.174 1.785-2.164 3.743-2.42 6.786zm254.274-19.926l.004-7.987c.018-6.989 3.478-9.365 10.327-7.254 2.433.75 2.224 2.629 2.234 4.405l.019 25.493c8.033-7.998 13.98-18.397 27.511-12.764-3.765 3.77-7.251 7.662-11.167 11.057-3.204 2.778-3.257 5.079-.831 8.416 4.103 5.644 7.806 11.581 11.629 17.427.879 1.344 2.22 2.524 2.019 4.375-8.36 3.011-13.515 1.415-17.895-5.545l-5.242-8.491c-.763-1.211-1.291-2.971-3.292-2.283-1.737.597-2.648 1.939-2.667 3.814l-.065 8.984c.094 6.275-4.641 4.084-7.872 4.551-3.725.538-4.848-1.023-4.787-4.764l.075-39.435zm-215.403 37.38c-2.473-11.462 1.492-17.083 12.775-18.685 2.794-.397 5.622-.605 8.384-1.155 2.812-.56 5.896-1.286 5.368-5.185-.5-3.692-3.481-3.95-6.441-4.017-2.285-.051-4.722.387-5.691 2.421-2.728 5.726-7.641 3.326-11.771 3.423-2.391.056-2.159-1.997-1.681-3.723 1.432-5.176 5.2-8.085 10.004-9.575 6.487-2.012 13.156-1.917 19.682-.178 6.081 1.621 8.925 5.18 9.302 11.458.588 9.783-.734 19.623.808 29.388.174 1.101-.29 2.137-1.419 2.27-3.431.403-7.254 1.539-10.138-.653-2.133-1.622-3.337-1.052-5.241-.235-4.809 2.062-9.741 3.194-15.026 1.592-3.847-1.166-7.013-2.999-8.913-7.145m18.934-11.829l-2.858.812c-2.93.916-4.381 2.866-3.942 5.97.46 3.257 3.125 3.602 5.59 3.776 6.618.469 9.97-3.932 8.761-11.542l-7.55.983zm97.905-.149c-1.983.001-3.484-.068-4.976.022-1.583.095-3.64-.637-4.46 1.293-.865 2.037.213 3.896 1.537 5.477 3.211 3.832 9.626 4.137 13.984.704 4.541-3.576 5.904-3.852 12.776-2.345-.725 5.074-3.466 8.731-7.654 11.406-8.464 5.406-21.652 3.855-28.071-3.218-7.641-8.42-8.177-22.306-1.205-31.236 6.249-8.005 18.799-10.351 28.038-5.241 6.081 3.363 11.131 13.661 10.291 20.445-.324 2.612-1.846 2.766-3.805 2.753l-16.456-.06m3.488-14.595c-6.662-3.061-11.468-1.049-12.633 5.473 3.483 1.362 7.142.549 10.706.687 1.571.061 3.622.617 4.525-1.143 1.043-2.033-.726-3.303-2.598-5.017zm36.513.251l5.434 16.35c3.099-6.085 4.619-11.651 6.13-17.181 2.811-10.285 4.525-11.372 15.278-8.774.121 3.942-2.038 7.243-3.311 10.763l-13.302 36.032c-3.566 9.65-11.348 11.777-20.113 10.512-4.501-.649-2.983-4.463-3.026-7.228-.042-2.695 1.414-3.659 4.189-3.516 6.581.339 8.375-2.248 6.079-8.495l-11.954-32.276c-.671-1.825-1.842-3.582-1.242-5.682 10.135-2.959 12.035-1.849 15.839 9.495zm-71.131-24.732l.312 53.346c.042 5.421-3.717 4.392-6.923 4.527-3.236.136-5.819.003-5.769-4.564l.019-50.404c-.024-3.434 1.173-5.013 4.62-4.628 2.551.285 5.348-.869 7.741 1.722zm-24.334 14.74c1.696 1.557 1.483 3.283 1.486 4.913l.075 32.849c.103 4.669-2.05 5.567-6.067 5.446-3.915-.118-7.271.068-7.13-5.525.255-10.114.047-20.24.057-30.361.008-7.761.063-7.807 7.684-7.718 1.158.013 2.315.132 3.894.395zm-11.515-12.922c1.425-3.17 7.988-5.113 11.107-3.202 3.379 2.071 2.611 6.057 1.275 8.458-2.047 3.681-6.36 1.792-9.578 1.543-3.845-.298-2.633-3.87-2.804-6.799z"/></svg>